<?xml version="1.0" standalone="no"?>
<!DOCTYPE svg PUBLIC "-//W3C//DTD SVG 20010904//EN"
 "http://www.w3.org/TR/2001/REC-SVG-20010904/DTD/svg10.dtd">
<svg version="1.0" xmlns="http://www.w3.org/2000/svg"
 width="1088.000000pt" height="1088.000000pt" viewBox="0 0 1088.000000 1088.000000"
 preserveAspectRatio="xMidYMid meet">
<metadata>
Created by potrace 1.14, written by Peter Selinger 2001-2017
</metadata>
<g transform="translate(0.000000,1088.000000) scale(0.100000,-0.100000)"
fill="#000000" stroke="none">
<path d="M4675 10666 c-38 -24 -197 -123 -353 -220 -155 -97 -287 -176 -292
-176 -6 0 -10 -4 -10 -9 0 -5 -10 -13 -22 -17 -13 -4 -25 -10 -28 -14 -3 -4
-19 -16 -37 -26 -110 -65 -178 -109 -181 -116 -2 -4 -8 -8 -13 -8 -8 0 -100
-55 -224 -135 -27 -18 -115 -72 -195 -121 -80 -48 -148 -92 -151 -97 -3 -5
-10 -9 -15 -10 -5 0 -38 -19 -74 -42 -56 -36 -244 -152 -305 -188 -11 -7 -22
-15 -25 -18 -3 -3 -12 -9 -20 -13 -23 -11 -54 -29 -96 -57 -64 -43 -144 -89
-153 -89 -5 0 -11 -7 -15 -15 -3 -8 -11 -15 -17 -15 -6 0 -41 -19 -78 -43 -74
-49 -695 -434 -726 -451 -11 -6 -22 -13 -25 -16 -3 -3 -39 -26 -80 -50 -41
-24 -77 -47 -80 -50 -3 -3 -45 -30 -95 -60 -49 -29 -93 -59 -97 -64 -4 -6 -8
-7 -8 -2 0 5 -8 2 -17 -6 -15 -12 -136 -89 -195 -123 -101 -59 -307 -192 -305
-197 2 -6 63 -54 126 -98 12 -8 71 -51 130 -95 60 -44 119 -87 131 -95 12 -8
31 -23 43 -32 12 -9 92 -67 177 -129 85 -61 161 -119 168 -127 6 -9 12 -13 12
-9 0 7 179 -122 208 -150 7 -7 17 -13 21 -13 4 0 16 -8 27 -19 11 -10 48 -38
83 -62 35 -24 72 -50 82 -58 18 -13 22 -12 35 7 8 12 21 28 29 36 9 8 30 34
48 58 18 24 52 63 75 88 23 25 42 49 42 54 0 5 6 14 14 20 7 6 89 103 181 216
188 231 236 289 250 304 6 6 39 47 74 91 36 44 68 82 73 83 4 2 8 10 8 18 0 8
4 14 8 14 4 0 26 23 47 52 22 28 44 56 50 62 6 6 53 63 105 126 52 63 97 117
102 118 4 2 8 10 8 17 0 7 4 15 9 17 4 2 45 48 90 103 46 55 90 109 99 120 9
11 37 45 61 75 25 30 51 61 60 68 8 6 12 12 8 12 -3 0 5 12 19 27 13 14 35 39
47 55 12 16 32 40 44 53 12 14 34 41 50 62 15 21 35 44 43 53 8 9 31 36 50 60
19 25 45 55 58 68 12 12 22 26 22 30 0 4 19 28 43 54 23 26 53 62 67 80 14 18
35 43 48 56 12 13 22 25 22 27 0 6 28 40 63 77 15 16 27 31 27 34 0 3 6 11 13
18 6 7 28 32 47 56 19 23 52 63 73 89 21 25 49 60 63 76 13 17 33 40 43 53 11
13 34 41 51 62 17 21 39 48 48 58 10 11 29 35 44 53 14 19 36 45 48 59 12 14
34 40 48 59 15 18 35 43 45 55 10 11 28 34 40 49 12 16 33 41 47 57 14 16 35
42 47 58 12 15 34 41 47 55 35 37 22 34 -59 -17z"/>
<path d="M5249 10668 c-19 -24 -37 -45 -40 -48 -4 -3 -29 -32 -56 -65 -26 -34
-54 -67 -60 -75 -78 -91 -183 -221 -183 -225 0 -3 -13 -20 -30 -38 -26 -28
-75 -87 -185 -222 -18 -22 -68 -83 -111 -135 -43 -52 -85 -103 -94 -114 -8
-10 -20 -23 -25 -30 -6 -6 -24 -29 -40 -51 -17 -21 -37 -47 -45 -55 -8 -9 -24
-28 -35 -41 -11 -13 -40 -49 -65 -79 -25 -30 -49 -60 -55 -66 -5 -6 -21 -26
-35 -44 -14 -18 -33 -42 -44 -54 -10 -11 -35 -41 -55 -66 -20 -25 -38 -47 -41
-50 -3 -3 -23 -27 -45 -55 -22 -27 -44 -55 -50 -61 -5 -6 -23 -28 -40 -49 -50
-63 -79 -97 -107 -127 -14 -15 -23 -28 -20 -28 4 0 2 -4 -3 -8 -6 -4 -42 -45
-80 -92 -38 -47 -74 -90 -80 -96 -5 -7 -21 -26 -35 -44 -14 -17 -32 -40 -40
-50 -8 -10 -28 -35 -45 -55 -16 -21 -38 -45 -47 -54 -10 -8 -18 -21 -18 -28 0
-7 -4 -13 -8 -13 -4 0 -41 -42 -82 -92 -41 -51 -77 -95 -80 -98 -3 -3 -34 -41
-70 -85 -35 -44 -67 -82 -70 -85 -3 -3 -43 -52 -90 -110 -81 -101 -96 -119
-137 -166 -10 -12 -29 -36 -43 -54 -14 -18 -30 -38 -36 -44 -6 -7 -33 -39 -60
-71 -26 -33 -53 -65 -58 -71 -6 -7 -22 -27 -36 -44 -14 -18 -35 -45 -47 -59
-27 -30 -47 -55 -88 -106 -16 -20 -45 -55 -62 -77 -40 -49 -41 -59 -5 -49 15
5 36 5 47 1 11 -4 27 -4 36 1 8 4 21 4 29 -1 7 -4 18 -7 24 -5 28 9 87 12 91
4 3 -4 17 -4 30 1 13 5 27 5 29 1 3 -5 25 -5 48 -1 24 5 50 5 58 1 19 -8 42
-8 57 2 6 4 14 3 18 -3 4 -6 11 -8 16 -4 6 3 34 6 62 5 79 -2 111 -1 135 4 12
2 24 0 27 -5 3 -5 19 -5 36 0 18 5 39 6 48 1 9 -5 25 -6 36 -4 11 2 27 4 35 3
8 0 24 0 35 1 11 0 28 0 38 0 33 -2 52 -2 97 -1 25 0 59 0 75 0 17 0 41 2 53
5 12 2 24 0 27 -5 3 -6 16 -5 30 0 13 5 27 5 29 1 3 -5 25 -5 48 -1 24 5 50 5
58 1 19 -8 42 -8 57 2 6 4 14 3 18 -3 4 -6 11 -8 16 -4 6 3 34 6 62 5 79 -2
111 -1 135 4 12 2 24 0 27 -5 3 -5 19 -5 36 0 18 5 39 6 48 1 9 -5 25 -6 36
-4 11 2 27 4 35 3 8 0 24 0 35 1 11 0 28 0 38 0 33 -2 52 -2 97 -1 25 0 59 0
75 0 17 0 41 2 53 5 12 2 24 0 27 -5 3 -6 16 -5 30 0 13 5 27 5 29 1 3 -5 25
-5 48 -1 24 5 50 5 58 1 19 -8 42 -8 57 2 6 4 14 3 18 -3 4 -6 11 -8 16 -4 6
3 34 6 62 5 79 -2 111 -1 135 4 12 2 24 0 27 -5 3 -5 19 -5 36 0 18 5 39 6 48
1 9 -5 25 -6 36 -4 11 2 27 4 35 3 8 0 24 0 35 1 11 0 28 0 38 0 33 -2 52 -2
97 -1 25 0 59 0 75 0 17 0 41 2 53 5 12 2 24 0 27 -5 3 -6 16 -5 30 0 13 5 27
5 29 1 3 -5 25 -5 48 -1 24 5 50 5 58 1 19 -8 42 -8 57 2 6 4 14 3 18 -3 4 -6
11 -8 16 -4 6 3 34 6 62 5 79 -2 111 -1 135 4 12 2 24 0 27 -5 3 -5 19 -5 36
0 18 5 39 6 48 1 9 -5 25 -6 36 -4 11 2 27 4 35 3 8 0 24 0 35 1 11 0 28 0 38
0 39 -2 55 -2 112 -2 33 1 72 1 88 1 47 0 61 0 82 1 11 0 28 0 38 0 33 -2 52
-2 97 -1 25 0 59 0 75 0 17 0 41 2 53 5 12 2 24 0 27 -5 3 -6 16 -5 30 0 13 5
27 5 29 1 3 -5 25 -5 48 -1 24 5 50 5 58 1 19 -8 42 -8 57 2 6 4 14 3 18 -3 4
-6 11 -8 16 -4 6 3 34 6 62 5 79 -2 111 -1 135 4 12 2 24 0 27 -5 3 -5 19 -5
36 0 18 5 39 6 48 1 9 -5 25 -6 36 -4 11 2 27 4 35 3 8 0 24 0 35 1 11 0 28 0
38 0 42 -2 55 -2 99 0 26 2 50 0 53 -3 3 -3 24 -2 48 2 23 5 49 5 57 1 19 -8
42 -8 57 2 6 4 14 3 18 -3 4 -6 11 -7 17 -4 9 6 148 8 174 3 5 -1 22 -1 38 0
25 1 28 3 15 14 -8 6 -27 28 -41 47 -15 19 -37 47 -50 62 -28 32 -36 42 -117
143 -36 44 -79 96 -95 116 -17 19 -44 52 -61 73 -34 43 -145 177 -181 218 -13
15 -24 30 -24 32 0 3 -10 16 -22 29 -13 13 -30 32 -38 43 -8 11 -35 44 -60 74
-25 30 -52 63 -60 73 -8 10 -23 28 -34 40 -10 12 -30 38 -45 57 -14 19 -30 40
-36 46 -5 6 -28 32 -50 59 -22 27 -49 58 -60 71 -12 12 -32 37 -45 55 -14 18
-41 51 -60 74 -19 23 -50 60 -68 83 -19 22 -41 50 -50 61 -10 11 -30 36 -47
56 -16 21 -40 48 -52 62 -13 13 -23 27 -23 31 0 4 -18 26 -40 50 -22 24 -40
46 -40 49 0 3 -8 13 -18 22 -10 9 -45 50 -78 91 -32 41 -63 80 -69 86 -5 6
-26 30 -45 54 -19 24 -39 48 -45 54 -5 6 -37 45 -70 86 -33 41 -64 80 -70 86
-5 6 -23 28 -40 48 -16 21 -42 52 -57 70 -55 65 -64 75 -88 107 -14 18 -35 43
-47 56 -13 13 -23 28 -23 33 0 4 -4 10 -8 12 -5 2 -60 66 -123 143 -62 77
-119 146 -127 153 -7 8 -25 30 -40 50 -15 21 -29 39 -32 42 -8 8 -91 108 -144
173 -61 75 -79 97 -91 111 -6 6 -28 34 -50 61 -22 28 -42 52 -45 55 -3 3 -25
30 -50 60 -25 30 -51 61 -57 68 -7 7 -13 18 -13 23 0 22 -31 5 -61 -33z"/>
<path d="M5830 10704 c0 -4 15 -23 33 -43 17 -20 50 -58 72 -85 22 -27 50 -61
63 -74 12 -14 22 -28 22 -31 0 -3 16 -23 35 -43 19 -20 35 -39 35 -42 0 -3 10
-16 23 -30 24 -26 26 -28 105 -126 30 -36 58 -66 63 -68 5 -2 9 -8 9 -13 0 -5
24 -38 53 -72 28 -34 70 -84 92 -111 22 -27 46 -55 53 -62 6 -7 12 -15 12 -18
0 -3 10 -16 23 -29 12 -13 56 -66 99 -118 42 -52 85 -104 95 -116 10 -11 32
-38 49 -60 17 -21 67 -81 110 -134 44 -53 94 -114 112 -137 19 -23 41 -50 50
-61 10 -10 31 -36 49 -58 17 -21 40 -49 52 -63 11 -14 24 -29 28 -35 14 -18
98 -120 108 -131 31 -34 55 -65 55 -69 0 -3 8 -13 18 -23 9 -10 26 -30 37 -43
11 -13 40 -49 65 -79 25 -30 49 -60 55 -67 5 -7 15 -18 20 -25 6 -7 33 -40 60
-73 28 -32 57 -68 65 -79 13 -16 75 -91 113 -136 12 -14 171 -209 207 -254 8
-10 25 -29 38 -42 12 -13 22 -26 22 -29 0 -4 21 -30 65 -79 6 -6 28 -34 50
-61 22 -28 44 -55 50 -62 5 -7 21 -26 35 -43 14 -17 39 -47 55 -66 17 -19 39
-46 50 -60 11 -14 27 -33 35 -43 8 -11 40 -49 70 -87 30 -37 62 -75 70 -83 8
-9 33 -40 55 -69 22 -29 44 -51 50 -48 13 4 152 104 205 146 21 17 43 30 49
30 6 0 11 3 11 8 0 4 17 18 38 32 48 33 51 34 92 67 19 16 58 44 85 63 28 18
52 36 55 40 3 3 23 18 46 33 22 15 49 35 60 45 11 9 52 39 92 66 39 27 72 53
72 58 0 4 6 8 14 8 8 0 16 3 18 8 2 4 26 23 53 42 28 19 55 38 60 43 6 4 60
44 120 88 162 117 163 118 145 129 -8 5 -32 20 -52 32 -20 13 -63 38 -95 57
-32 19 -60 38 -63 41 -5 6 -104 66 -141 85 -10 5 -19 13 -19 17 0 5 -5 8 -11
8 -6 0 -30 14 -54 30 -24 17 -48 30 -54 30 -6 0 -11 5 -11 10 0 6 -5 10 -11
10 -6 0 -25 10 -42 23 -18 12 -41 27 -52 33 -11 6 -92 56 -180 111 -88 54
-171 106 -185 114 -14 8 -27 16 -30 19 -3 3 -14 10 -25 17 -11 7 -51 31 -89
55 -112 69 -139 86 -181 111 -22 13 -168 103 -324 200 -156 98 -287 177 -291
177 -5 0 -10 4 -12 8 -1 5 -37 28 -78 52 -41 24 -84 51 -95 59 -11 9 -31 23
-45 31 -14 8 -63 38 -110 67 -47 30 -93 56 -102 59 -10 4 -18 9 -18 13 0 3
-21 18 -47 31 -27 14 -49 28 -51 33 -2 4 -8 7 -13 7 -6 0 -15 5 -22 10 -7 6
-111 72 -232 147 -121 75 -309 192 -418 260 -109 67 -203 123 -208 123 -5 0
-12 7 -15 15 -4 8 -15 15 -25 15 -10 0 -19 5 -19 10 0 6 -11 15 -24 20 -14 5
-63 34 -110 64 -46 31 -96 61 -110 68 -14 6 -26 15 -26 20 0 4 -5 8 -10 8 -6
0 -48 25 -95 55 -47 30 -85 51 -85 47 0 -4 -5 1 -11 11 -5 9 -14 17 -20 17 -5
0 -27 11 -49 25 -22 14 -40 22 -40 19z"/>
<path d="M9977 7817 c-15 -12 -46 -36 -69 -53 -24 -17 -99 -72 -168 -122 -69
-51 -130 -96 -137 -102 -7 -5 -16 -10 -22 -10 -5 0 -11 -3 -13 -7 -1 -5 -21
-21 -43 -38 -22 -16 -44 -33 -50 -38 -5 -4 -49 -36 -96 -70 -48 -34 -99 -72
-115 -84 -16 -12 -123 -90 -237 -173 -162 -119 -207 -156 -201 -169 6 -15 37
-97 70 -186 8 -22 16 -44 17 -50 2 -5 8 -20 15 -32 7 -12 12 -27 12 -33 0 -7
6 -26 14 -43 15 -34 176 -465 180 -482 1 -5 10 -27 19 -49 9 -21 17 -41 17
-45 0 -3 13 -40 30 -81 16 -41 66 -174 110 -295 45 -121 85 -229 90 -240 5
-11 41 -108 80 -215 39 -107 75 -204 80 -215 5 -11 45 -119 90 -240 44 -121
85 -229 90 -240 11 -26 160 -426 165 -445 7 -27 101 -269 106 -274 2 -3 4 906
4 2019 0 1113 -2 2026 -5 2029 -3 3 -18 -5 -33 -17z"/>
<path d="M640 5873 c0 -1614 3 -1903 14 -1878 7 17 28 68 46 115 18 47 37 96
43 110 5 14 11 30 12 35 3 9 47 124 70 180 5 11 9 22 10 25 3 13 68 178 81
207 8 17 14 38 14 46 0 9 4 18 9 22 5 3 13 20 17 37 3 18 10 39 15 48 7 12 26
57 34 80 7 20 19 50 55 140 12 30 23 59 25 65 1 5 6 19 10 30 5 11 17 43 28
70 10 28 24 61 30 75 5 14 11 30 13 35 1 6 8 24 15 40 6 17 13 35 15 40 1 6
10 28 20 50 10 22 18 45 20 50 1 6 18 53 39 105 20 52 47 122 60 155 27 70 79
201 90 230 5 11 9 22 10 25 1 3 5 13 9 22 4 9 9 22 10 30 2 7 8 24 13 38 9 20
112 283 143 365 4 11 7 22 7 25 0 3 6 16 13 30 8 14 13 29 12 34 -2 5 5 17 14
27 9 11 14 19 11 19 -3 0 7 32 24 71 16 40 29 75 29 79 0 4 10 29 22 56 12 27
23 52 24 57 1 4 2 8 4 10 1 1 3 9 5 17 2 8 7 25 10 36 6 18 -12 35 -127 118
-73 52 -142 103 -153 111 -74 58 -198 145 -206 145 -5 0 -9 4 -9 8 0 5 -26 26
-57 48 -32 21 -60 41 -63 44 -3 3 -21 17 -40 30 -19 13 -41 30 -47 36 -7 7
-29 22 -50 35 -21 13 -40 26 -43 29 -10 11 -338 250 -344 250 -3 0 -6 -858 -6
-1907z"/>
<path d="M2447 6844 c-3 -3 -19 -6 -36 -6 -19 -1 -30 -6 -28 -12 5 -11 199
-321 214 -342 8 -10 19 -29 46 -76 6 -13 15 -25 18 -28 3 -3 42 -63 87 -135
45 -71 86 -135 92 -142 5 -7 10 -17 10 -23 0 -5 5 -10 10 -10 6 0 10 -5 10
-11 0 -6 14 -30 30 -54 17 -24 30 -48 30 -54 0 -6 3 -11 8 -11 4 0 12 -9 17
-20 6 -11 89 -144 185 -295 96 -152 182 -288 191 -303 9 -15 84 -134 168 -265
83 -132 151 -240 151 -242 0 -1 24 -38 53 -82 28 -44 68 -105 87 -137 19 -32
54 -86 78 -122 23 -35 42 -66 42 -68 0 -2 26 -43 58 -92 31 -49 64 -101 71
-116 8 -16 18 -28 23 -28 4 0 8 -4 8 -10 0 -5 46 -80 101 -167 56 -87 107
-167 113 -178 13 -23 34 -57 82 -130 18 -27 87 -138 155 -245 67 -107 142
-225 165 -262 24 -37 44 -71 44 -77 0 -5 3 -11 8 -13 4 -1 35 -48 69 -103 34
-55 66 -105 70 -111 9 -11 11 -15 75 -119 23 -38 48 -76 55 -83 6 -6 15 -21
18 -32 3 -11 10 -20 15 -20 4 0 10 -8 13 -17 4 -10 16 -34 29 -55 70 -111 168
-264 176 -273 4 -5 11 -18 15 -27 3 -10 10 -18 14 -18 4 0 44 57 88 128 44 70
82 129 85 132 4 3 22 31 41 63 68 117 77 130 90 138 8 5 11 9 7 9 -7 0 12 32
127 210 71 110 369 583 380 602 25 45 90 144 102 156 7 7 13 19 13 27 0 7 4
15 8 17 4 2 37 50 72 108 35 58 79 126 97 153 18 26 30 47 26 47 -5 0 -3 4 2
8 12 9 55 69 55 77 0 4 11 21 25 39 14 18 25 35 25 39 0 4 39 66 80 127 35 52
70 112 70 121 0 5 7 12 15 15 8 4 15 10 15 14 0 7 31 58 190 310 23 36 46 74
53 85 7 11 27 41 45 68 17 26 32 49 32 52 0 3 27 46 60 96 33 50 60 93 60 96
0 3 10 20 23 37 12 17 29 43 36 59 8 15 18 27 23 27 4 0 8 4 8 10 0 13 71 124
82 128 4 2 6 8 2 13 -3 5 0 9 5 9 6 0 11 5 11 12 0 6 11 26 25 44 14 18 25 35
25 38 0 8 71 117 88 134 6 7 12 17 12 22 0 8 58 102 77 125 19 22 73 116 73
125 0 6 7 13 15 16 8 4 15 10 15 14 0 9 129 221 140 230 3 3 35 52 70 110 35
58 68 107 72 108 4 2 8 8 8 14 0 5 14 29 30 53 16 24 30 48 30 54 0 6 4 11 10
11 5 0 12 11 16 25 3 14 10 25 14 25 5 0 12 9 15 20 3 11 12 26 19 32 6 7 29
42 51 78 21 36 44 68 49 72 8 5 7 11 0 18 -10 10 -31 12 -104 9 -8 0 -55 0
-105 0 -49 0 -97 0 -105 0 -8 0 -33 0 -55 0 -22 0 -47 0 -55 0 -30 -2 -366 0
-395 1 -16 1 -37 2 -45 2 -8 -1 -105 -1 -215 -1 -110 0 -207 0 -215 0 -8 0
-96 0 -195 0 -99 1 -184 1 -190 1 -17 -1 -119 -1 -140 -1 -20 0 -407 0 -435 0
-8 0 -96 0 -195 0 -99 1 -184 1 -190 1 -17 -1 -119 -1 -140 -1 -20 0 -407 0
-435 0 -8 0 -96 0 -195 0 -99 1 -184 1 -190 1 -17 -1 -119 -1 -140 -1 -16 0
-394 0 -430 0 -13 0 -293 0 -320 0 -11 0 -101 0 -200 0 -99 1 -184 1 -190 1
-17 -1 -119 -1 -140 -1 -15 0 -382 0 -430 0 -5 0 -69 0 -142 -1 -73 -1 -136 1
-141 4 -5 3 -12 3 -15 0z"/>
<path d="M8512 6564 c-7 -8 -11 -14 -8 -14 5 0 -55 -96 -74 -117 -5 -7 -10
-15 -10 -18 0 -3 -8 -18 -19 -33 -48 -70 -181 -284 -181 -291 0 -4 -11 -21
-24 -36 -13 -15 -30 -40 -38 -54 -16 -32 -93 -152 -107 -168 -6 -7 -11 -17
-11 -22 0 -5 -6 -16 -13 -23 -7 -7 -28 -38 -45 -68 -18 -30 -55 -89 -82 -130
-27 -41 -53 -82 -57 -90 -3 -8 -16 -28 -27 -45 -12 -16 -26 -39 -33 -50 -6
-11 -47 -75 -90 -143 -43 -68 -91 -145 -108 -172 -16 -27 -36 -57 -43 -67 -7
-10 -27 -42 -45 -70 -17 -29 -68 -109 -112 -179 -44 -69 -84 -133 -90 -143
-28 -49 -101 -157 -110 -163 -5 -4 -7 -8 -3 -8 4 0 -14 -33 -41 -72 -49 -75
-408 -643 -426 -675 -13 -22 -56 -91 -100 -158 -18 -27 -46 -72 -63 -100 -17
-27 -35 -54 -39 -60 -12 -15 -207 -328 -212 -339 -2 -6 -8 -15 -13 -21 -20
-24 -108 -166 -108 -174 0 -5 -3 -11 -8 -13 -6 -2 -200 -305 -245 -383 -7 -11
-14 -22 -17 -25 -3 -3 -10 -14 -17 -25 -6 -11 -50 -82 -97 -157 -47 -75 -86
-139 -86 -142 0 -5 41 -1 88 8 72 15 153 27 195 29 15 1 27 6 27 10 0 5 4 6 8
3 4 -3 26 -1 48 4 21 4 59 11 84 14 25 3 56 8 70 11 30 5 217 36 245 40 11 1
48 8 82 14 34 6 65 11 70 10 4 -1 10 0 13 1 8 3 32 7 75 14 22 3 51 8 65 11
14 2 41 7 60 9 19 3 46 8 60 11 14 3 43 7 65 9 22 3 63 9 90 15 28 5 68 12 90
15 23 4 50 8 60 10 23 4 125 20 140 21 11 1 87 15 120 21 11 3 36 6 55 9 19 3
46 7 60 10 26 5 70 12 130 20 19 3 73 12 120 20 47 8 101 17 120 19 19 2 63 9
98 15 71 13 163 28 207 35 17 3 71 12 120 20 50 8 97 14 105 15 8 0 38 5 65
11 28 6 65 13 83 15 17 3 49 8 70 11 20 3 48 7 62 9 14 2 25 4 25 5 0 1 11 3
25 5 14 2 43 6 65 9 22 4 51 9 65 11 14 2 39 6 55 9 17 2 50 8 75 11 46 8 67
11 110 20 14 2 43 7 65 10 23 3 52 8 65 10 14 3 41 8 60 11 19 3 60 9 90 14
30 6 73 12 95 15 22 2 51 7 65 10 61 12 161 27 188 28 6 0 12 3 12 6 0 3 10 6
23 7 37 2 97 8 97 10 0 3 -90 246 -100 269 -4 11 -13 36 -20 55 -7 19 -16 44
-21 55 -16 38 -61 160 -64 178 -2 9 -7 23 -12 30 -4 6 -8 14 -8 17 0 5 -9 27
-40 110 -8 19 -35 91 -60 160 -25 69 -53 139 -61 157 -8 17 -14 35 -14 40 0 4
-25 73 -55 151 -30 79 -55 150 -55 158 0 8 -5 14 -12 14 -6 0 -9 3 -5 6 3 4 0
19 -9 35 -8 16 -14 31 -13 34 0 3 -8 29 -19 58 -48 123 -115 304 -124 335 -5
17 -14 32 -20 32 -6 0 -9 3 -6 6 8 7 -1 35 -52 164 -23 58 -43 112 -45 120 -6
21 -94 259 -110 295 -7 17 -18 48 -25 70 -7 22 -17 46 -23 53 -5 6 -6 12 -2
12 4 0 3 6 -2 13 -5 6 -20 41 -32 77 -12 36 -26 74 -31 85 -5 11 -18 47 -30
80 -11 33 -24 69 -29 80 -5 11 -18 46 -30 78 -12 31 -30 83 -42 115 -24 67
-33 88 -47 122 -5 14 -15 41 -22 60 -7 19 -16 44 -21 55 -5 11 -25 65 -44 120
-19 55 -43 118 -51 140 -9 22 -20 49 -24 60 -28 72 -35 82 -48 69z"/>
<path d="M2040 6559 c0 -9 -238 -656 -259 -704 -12 -25 -23 -57 -26 -70 -3
-13 -94 -253 -105 -280 -21 -47 -100 -270 -100 -282 0 -7 -4 -13 -9 -13 -5 0
-12 -15 -16 -32 -10 -44 -5 -29 -85 -238 -39 -102 -73 -192 -75 -200 -2 -8 -4
-16 -5 -17 -2 -2 -3 -6 -5 -10 -1 -5 -5 -17 -10 -28 -21 -50 -65 -170 -65
-176 0 -4 -8 -24 -17 -45 -9 -22 -17 -41 -18 -44 0 -3 -11 -32 -24 -65 -33
-85 -46 -119 -47 -125 0 -3 -6 -18 -13 -35 -7 -16 -14 -37 -16 -45 -2 -8 -34
-94 -70 -190 -71 -189 -74 -197 -76 -208 0 -4 -6 -16 -12 -27 -6 -11 -12 -24
-13 -30 -1 -5 -17 -48 -34 -95 -27 -70 -60 -158 -85 -228 -2 -7 -5 -14 -5 -17
-1 -2 -13 -33 -26 -67 -14 -35 -36 -94 -50 -132 -13 -38 -28 -74 -34 -81 -6
-7 -10 -17 -8 -21 1 -5 -3 -19 -10 -31 -7 -13 -10 -23 -6 -23 3 0 1 -6 -5 -13
-6 -8 -8 -17 -4 -20 3 -4 1 -7 -6 -7 -7 0 -10 -4 -6 -9 3 -5 1 -12 -5 -16 -5
-3 -10 -16 -10 -29 0 -12 -4 -26 -9 -31 -13 -15 -31 -74 -23 -79 4 -2 32 -7
62 -11 30 -4 66 -9 80 -11 35 -6 90 -15 121 -18 14 -2 30 -5 35 -8 5 -3 17 -4
27 -3 9 2 17 0 17 -3 0 -4 10 -7 23 -8 22 0 90 -9 137 -18 14 -3 41 -7 60 -10
19 -3 103 -17 185 -31 83 -14 164 -28 180 -30 17 -2 48 -7 70 -11 22 -3 49 -8
60 -9 11 -2 20 -4 20 -5 0 -1 18 -3 40 -5 22 -2 54 -6 70 -9 17 -4 44 -9 60
-12 17 -3 41 -7 55 -10 14 -3 41 -7 60 -9 37 -5 61 -9 125 -20 22 -3 81 -13
130 -21 50 -8 104 -16 120 -19 55 -9 90 -15 130 -20 43 -7 65 -11 105 -19 14
-3 48 -9 75 -12 73 -10 90 -12 90 -14 0 -1 11 -3 25 -5 14 -2 36 -6 50 -9 14
-3 45 -7 70 -10 25 -3 54 -7 65 -10 24 -4 116 -20 130 -21 6 -1 30 -5 55 -9
25 -4 57 -9 73 -12 15 -2 42 -7 60 -10 17 -3 43 -7 57 -9 14 -2 53 -8 86 -14
67 -12 136 -22 172 -25 12 0 22 -5 22 -9 0 -5 3 -6 8 -3 4 2 30 0 57 -5 28 -5
64 -11 82 -14 18 -2 58 -9 90 -14 32 -6 76 -13 98 -16 23 -3 52 -7 65 -10 58
-11 184 -31 250 -39 14 -2 32 -6 40 -10 8 -3 35 -8 60 -10 25 -2 52 -6 60 -9
8 -3 38 -8 65 -11 28 -3 61 -8 75 -11 14 -3 39 -7 55 -9 17 -3 44 -7 60 -10
17 -2 50 -8 75 -11 25 -4 53 -9 63 -11 29 -5 37 -18 -165 297 -32 49 -58 94
-58 99 0 6 -4 10 -10 10 -5 0 -10 7 -10 15 0 8 -4 15 -10 15 -5 0 -10 4 -10 9
0 10 -109 184 -130 208 -5 7 -10 15 -10 18 0 3 -26 45 -57 93 -32 48 -60 92
-62 97 -2 6 -17 29 -32 52 -16 23 -29 46 -29 51 0 6 -4 12 -8 14 -7 3 -101
149 -231 361 -25 40 -48 74 -53 75 -4 2 -8 8 -8 12 0 5 -44 78 -97 163 -54 85
-103 163 -110 173 -6 10 -51 82 -100 159 -48 77 -89 145 -91 152 -2 7 -7 13
-12 13 -4 0 -15 15 -25 33 -9 17 -34 59 -55 92 -34 52 -88 138 -140 220 -8 13
-51 82 -95 152 -44 70 -85 134 -92 141 -6 6 -15 21 -18 32 -3 11 -11 20 -17
20 -6 0 -9 3 -5 6 3 3 1 11 -4 18 -6 6 -33 48 -62 94 -66 106 -69 110 -147
233 -36 56 -76 121 -89 143 -13 23 -27 43 -32 44 -5 2 -9 8 -9 12 0 9 -70 124
-90 147 -5 7 -10 17 -10 23 0 5 -4 10 -10 10 -5 0 -10 6 -10 13 0 7 -7 22 -15
32 -9 11 -54 81 -100 155 -47 74 -88 140 -92 145 -12 15 -107 167 -115 185 -6
12 -75 119 -128 200 -43 65 -90 142 -90 146 0 3 -6 11 -12 18 -7 8 -20 23 -28
35 -15 23 -30 28 -30 10z"/>
<path d="M660 2385 c0 -5 101 -52 114 -53 5 0 12 -4 15 -9 5 -7 335 -174 351
-178 5 -1 610 -301 1468 -728 226 -113 412 -203 412 -200 0 3 7 0 15 -7 19
-16 753 -380 765 -380 6 0 10 -5 10 -10 0 -6 3 -9 8 -8 4 1 147 -67 317 -152
171 -85 312 -155 315 -155 3 -1 16 -7 30 -15 60 -34 239 -120 249 -120 6 0 11
-4 11 -10 0 -5 9 -10 19 -10 11 0 21 -3 23 -7 3 -8 275 -144 293 -146 14 -3
14 1463 0 1471 -5 4 -14 7 -20 8 -5 1 -28 5 -50 9 -70 12 -79 13 -130 20 -56
7 -90 13 -90 15 0 1 -11 3 -25 4 -22 3 -123 19 -200 32 -56 10 -87 15 -120 20
-64 9 -95 14 -117 18 -11 3 -43 8 -70 12 -26 5 -50 9 -53 9 -3 1 -32 5 -65 9
-33 5 -69 10 -80 13 -11 2 -33 6 -50 9 -16 2 -41 7 -55 10 -14 3 -45 8 -70 11
-52 6 -62 8 -110 17 -19 3 -46 8 -60 10 -14 3 -25 5 -25 6 0 1 -16 3 -35 5
-19 1 -35 3 -35 4 0 2 -11 4 -25 6 -73 9 -107 14 -130 19 -14 3 -41 8 -60 11
-19 2 -46 7 -60 10 -29 6 -151 25 -195 30 -16 2 -43 6 -60 10 -52 11 -88 17
-120 20 -16 2 -30 4 -30 5 0 1 -9 3 -20 5 -146 21 -149 21 -190 29 -16 3 -48
8 -70 11 -76 12 -100 16 -115 20 -8 2 -37 6 -65 10 -27 3 -57 8 -65 10 -14 4
-32 6 -125 20 -22 3 -62 10 -90 15 -27 6 -68 12 -90 15 -62 9 -98 14 -125 20
-14 3 -45 8 -70 11 -25 3 -52 7 -60 9 -8 3 -33 7 -55 10 -22 4 -80 13 -130 21
-49 8 -103 17 -120 20 -16 2 -55 9 -85 14 -30 5 -71 11 -90 14 -19 3 -46 8
-59 10 -12 3 -42 8 -65 10 -22 3 -52 8 -66 11 -24 6 -42 8 -125 20 -22 3 -49
7 -61 10 -12 2 -37 7 -58 10 -20 3 -53 8 -73 11 -21 3 -47 7 -58 9 -11 2 -47
8 -79 14 -69 13 -66 12 -66 6z"/>
<path d="M9889 2386 c-3 -3 -27 -8 -54 -12 -28 -3 -59 -8 -70 -11 -11 -2 -36
-6 -55 -8 -19 -3 -44 -7 -55 -9 -11 -3 -42 -8 -70 -11 -27 -4 -58 -9 -68 -11
-10 -3 -32 -7 -50 -9 -39 -5 -105 -16 -132 -22 -21 -4 -48 -8 -125 -18 -25 -3
-63 -10 -85 -15 -22 -4 -62 -11 -88 -14 -26 -4 -71 -11 -100 -17 -29 -5 -72
-13 -97 -16 -25 -3 -49 -7 -55 -8 -63 -13 -85 -17 -115 -20 -19 -2 -35 -4 -35
-5 0 -1 -13 -3 -30 -6 -16 -2 -43 -6 -60 -9 -16 -2 -41 -6 -55 -9 -14 -2 -43
-7 -65 -10 -74 -11 -100 -15 -120 -19 -11 -3 -40 -8 -65 -11 -25 -3 -54 -8
-65 -10 -11 -2 -40 -7 -65 -11 -25 -4 -54 -9 -65 -11 -11 -2 -92 -15 -180 -29
-88 -15 -173 -29 -190 -32 -16 -3 -42 -6 -57 -7 -16 0 -28 -3 -28 -7 0 -3 -15
-5 -32 -4 -18 1 -37 -1 -43 -4 -11 -6 -21 -8 -80 -15 -22 -2 -40 -5 -40 -7 0
-1 -9 -3 -20 -4 -29 -4 -97 -15 -125 -20 -13 -3 -42 -7 -65 -10 -22 -3 -47 -8
-55 -10 -8 -2 -35 -6 -60 -9 -25 -3 -56 -8 -70 -11 -13 -2 -42 -8 -65 -11 -22
-4 -50 -8 -62 -10 -13 -2 -33 -6 -45 -8 -27 -4 -96 -15 -135 -21 -15 -2 -43
-7 -60 -10 -18 -3 -45 -7 -60 -9 -16 -3 -39 -7 -53 -10 -14 -3 -43 -8 -65 -11
-22 -3 -51 -7 -65 -10 -13 -2 -42 -7 -65 -10 -22 -3 -80 -13 -130 -21 -134
-24 -147 -26 -180 -29 -16 -2 -30 -4 -30 -5 0 -1 -11 -3 -25 -5 -37 -4 -102
-15 -128 -21 -13 -3 -43 -7 -65 -10 -23 -3 -53 -8 -67 -11 -14 -2 -36 -6 -50
-8 -14 -2 -43 -6 -65 -10 -22 -4 -48 -7 -57 -7 -10 1 -22 -7 -26 -16 -9 -18
-11 -1457 -2 -1465 3 -2 251 118 551 267 301 149 585 289 630 311 46 22 91 44
99 50 8 6 44 24 80 40 36 16 79 38 95 50 17 11 30 18 30 16 0 -4 893 435 935
458 45 26 343 171 351 171 5 0 9 5 9 10 0 6 6 10 13 10 6 0 78 34 160 75 81
41 147 72 147 69 0 -2 6 0 13 6 16 14 895 450 907 450 6 0 10 5 10 10 0 5 3 9
8 8 4 -1 53 21 110 50 56 28 102 48 102 44 0 -4 4 -2 8 4 4 6 42 27 85 48 42
21 77 40 77 42 0 5 -26 5 -31 0z"/>
</g>
</svg>
