<svg width="495" height="527" viewBox="0 0 495 527" fill="none" xmlns="http://www.w3.org/2000/svg">
<path d="M153.958 56.8491C153.958 56.8491 134.612 75.9206 131.32 112.137C128.028 148.353 171.979 97.3489 171.979 97.3489L153.958 56.8491Z" fill="url(#paint0_linear_862_20)"/>
<path d="M140.533 96.3625C140.533 96.3625 150.484 51.7972 164.719 42.7603C178.955 33.7235 203.777 43.1081 203.777 43.1081L140.533 96.3625Z" fill="url(#paint1_linear_862_20)"/>
<path d="M352.213 208.07C319.052 256.651 162.07 259.46 135.994 233.788C125.676 223.342 118.801 209.999 116.287 195.542V195.542C103.781 132.13 155.816 40.4212 237.308 33.8879C292.515 29.5195 336.98 76.3986 354.567 125.483C365.549 156.165 366.064 187.695 352.213 208.07Z" fill="url(#paint2_linear_862_20)"/>
<path d="M320.611 230.967C298.498 239.347 275.444 245.003 251.961 247.81C215.443 251.438 188.722 250 173.414 245.605C163.33 242.692 158.202 238.555 158.421 233.76C158.528 230.832 165.452 227.582 176.527 224.38C209.112 215.038 277.553 206.308 315.081 208.177C318.323 208.342 321.331 208.571 324.058 208.927C324.664 208.967 325.199 209.072 325.756 209.147C325.85 209.116 325.949 209.1 326.048 209.1C332.599 210.018 337.327 211.47 339.576 213.615C340.103 214.09 340.521 214.673 340.802 215.325C342.641 220.038 333.888 225.673 320.611 230.967Z" fill="url(#paint3_linear_862_20)"/>
<path style="mix-blend-mode:multiply" opacity="0.3" d="M352.213 208.07C319.052 256.651 162.07 259.46 135.994 233.788C125.676 223.342 118.801 209.999 116.287 195.542V195.542C116.287 195.542 128.726 214.812 160.719 215.467C192.712 216.121 284.32 202.24 301.616 186.568C318.912 170.896 305.386 108.435 305.386 108.435L354.655 125.523C365.549 156.165 366.064 187.695 352.213 208.07Z" fill="url(#paint4_linear_862_20)"/>
<path style="mix-blend-mode:multiply" opacity="0.5" d="M320.611 230.967C304.182 225.689 256.422 212.605 220.414 224.586C176.247 239.251 173.422 245.658 173.422 245.658C163.338 242.745 158.211 238.609 158.429 233.813C158.536 230.885 165.461 227.635 176.535 224.433C209.12 215.091 277.561 206.361 315.089 208.23C319.034 208.528 322.603 208.859 325.773 209.253C325.867 209.222 325.966 209.206 326.065 209.206C332.616 210.124 337.344 211.576 339.593 213.721C340.119 214.197 340.538 214.78 340.818 215.431C342.641 220.038 333.888 225.673 320.611 230.967Z" fill="url(#paint5_linear_862_20)"/>
<path d="M324.028 208.905C316.239 218.032 275.488 229.325 251.959 231.678C209.644 235.874 183.253 231.717 176.5 224.384C211.875 214.245 289.605 204.8 324.028 208.905Z" fill="url(#paint6_linear_862_20)"/>
<path d="M116.074 198.487C124.482 217.092 259.482 210.595 290.434 173.492C321.386 136.388 277.896 27.5721 207.923 44.8431C141.244 61.4001 100.61 164.817 116.074 198.487Z" fill="#DFE3FB"/>
<path d="M116.164 195.453C124.572 214.058 259.577 207.587 290.524 170.458C321.472 133.328 277.994 24.5912 208.03 41.9152C141.347 58.4457 100.708 161.836 116.164 195.453Z" fill="url(#paint7_linear_862_20)"/>
<path d="M282.426 49.8946C282.426 49.8946 285.858 116.409 330.122 132.878C330.122 132.878 350.305 131.764 359.87 117.866C359.87 117.866 344.67 137.638 322.887 123.2C301.104 108.762 297.695 59.7096 309.404 41.6343C321.112 23.5591 342.622 24.2751 342.622 24.2751L333.098 18.1989C333.098 18.1989 301.587 16.9779 282.426 49.8946Z" fill="url(#paint8_linear_862_20)"/>
<path d="M333.178 18.1862C333.178 18.1862 310.375 19.7976 298.948 48.3837C286.798 78.7712 306.774 124.537 328.223 128.473C349.672 132.409 357.351 51.7775 357.351 51.7775L340.637 22.9311C338.728 20.5886 336.111 18.9244 333.178 18.1862V18.1862Z" fill="url(#paint9_linear_862_20)"/>
<path d="M373.031 79.2647C372.592 94.678 368.502 107.87 361.625 116.906L359.686 119.282C356.998 122.447 353.679 125.017 349.941 126.829C346.202 128.642 342.126 129.656 337.974 129.807C310.061 130.816 299.895 91.8968 299.437 68.9543C298.834 42.5255 318.463 23.3545 336.381 22.7371C358.066 21.9834 373.908 49.1184 373.031 79.2647Z" fill="url(#paint10_linear_862_20)"/>
<path d="M112.598 177.82C99.5717 183.682 87.9269 192.217 78.4212 202.867C62.6977 220.547 60.8158 239.4 82.8624 234.236L92.2292 226.462C92.2292 226.462 79.2325 230.433 78.8094 216.626C78.3862 202.818 112.516 180.39 112.516 180.39L112.598 177.82Z" fill="url(#paint11_linear_862_20)"/>
<path d="M77.1651 223.77C71.5457 231.627 85.6077 235.731 96.8429 235.768C109.445 235.832 131.512 230.964 128.723 218.567C125.935 206.169 90.3455 205.352 77.1651 223.77Z" fill="url(#paint12_linear_862_20)"/>
<path d="M78.1511 225C77.9931 227.093 122.556 222.975 122.892 214.978C123.229 206.98 79.4235 208.829 78.1511 225Z" fill="url(#paint13_linear_862_20)"/>
<path d="M221.166 120.952C220.416 122.404 236.892 107.57 267.952 114.358C271.053 115.008 235.909 92.3014 221.166 120.952Z" fill="url(#paint14_linear_862_20)"/>
<path d="M129.07 135.7C128.319 137.152 136.497 126.358 163.138 128.489C166.282 128.724 142.292 110.175 129.07 135.7Z" fill="url(#paint15_linear_862_20)"/>
<path style="mix-blend-mode:screen" opacity="0.5" d="M140.138 108.45C143.863 112.51 166.914 95.4881 195.057 93.871C223.2 92.254 257.702 114.519 279.797 107.606C297.346 102.096 263.402 41.3292 216.71 42.848C170.017 44.3667 136.417 104.417 140.138 108.45Z" fill="url(#paint16_linear_862_20)"/>
<path style="mix-blend-mode:screen" opacity="0.5" d="M145.811 196.78C166.127 188.657 187.657 183.975 209.513 182.927C245.657 181.235 251.968 184.068 251.861 187.513C251.754 190.957 226.897 201.927 193.832 203.619C160.767 205.312 145.811 196.78 145.811 196.78Z" fill="url(#paint17_linear_862_20)"/>
<path style="mix-blend-mode:screen" opacity="0.5" d="M116.338 190.202C116.338 190.202 108.749 165.781 125.696 126.823C125.696 126.823 129.68 120.504 132.233 122.166C134.787 123.828 116.234 153.03 116.338 190.202Z" fill="url(#paint18_linear_862_20)"/>
<path style="mix-blend-mode:screen" opacity="0.72" d="M308.98 99.8383C308.98 99.8383 315.866 123.609 334.553 125.944C353.239 128.278 365.665 113 367.229 94.0342C367.229 94.0342 364.228 110.644 340.32 110.445C316.413 110.246 308.98 99.8383 308.98 99.8383Z" fill="url(#paint19_linear_862_20)"/>
<path style="mix-blend-mode:screen" opacity="0.72" d="M304.749 53.501C305.705 57.9738 336.911 43.2196 347.57 42.8856C358.228 42.5516 364.719 54.5782 366.321 54.0243C367.923 53.4705 358.632 24.3419 338.892 25.3305C319.153 26.319 304.087 50.3688 304.749 53.501Z" fill="url(#paint20_linear_862_20)"/>
<path d="M163.167 155.934C163.167 155.934 195.94 151.895 213.651 144.318C213.651 144.318 214.133 175.473 192.972 178.837C171.812 182.2 163.167 155.934 163.167 155.934Z" fill="#2F95CD"/>
<path d="M190.479 335.987C190.479 335.987 140.718 375.645 127.654 376.443C114.589 377.241 115.691 347.141 115.691 347.141C117.072 344.854 118.657 342.48 120.336 340.009C137.562 315.153 168.187 281.992 186.272 265.624C193.871 258.73 199.247 254.829 200.408 255.787C209.22 262.874 190.479 335.987 190.479 335.987Z" fill="url(#paint21_linear_862_20)"/>
<path d="M115.708 347.247C115.708 347.247 121.906 340.113 131.988 346.781C142.069 353.449 136.048 374.211 127.697 376.545C119.346 378.879 111.106 360.819 115.708 347.247Z" fill="url(#paint22_linear_862_20)"/>
<path style="mix-blend-mode:multiply" opacity="0.3" d="M190.479 335.987C190.479 335.987 140.718 375.645 127.654 376.443C114.589 377.241 115.691 347.141 115.691 347.141C117.072 344.854 118.657 342.48 120.336 340.009C120.336 340.009 134.893 345.857 159.005 338.079C183.116 330.302 186.272 265.624 186.272 265.624C193.871 258.73 199.247 254.829 200.408 255.787C209.22 262.874 190.479 335.987 190.479 335.987Z" fill="url(#paint23_linear_862_20)"/>
<path d="M270.4 426.906C273.04 438.375 266.742 479.857 255.936 494.007C254.401 496.393 251.985 498.078 249.213 498.694C238.516 499.986 218.513 453.708 209.456 426.909C205.962 416.582 204.126 409.148 205.122 408.554C213.411 403.265 267.196 413.269 270.4 426.906Z" fill="url(#paint24_linear_862_20)"/>
<path d="M271.552 430.559C271.552 430.559 261.407 441.149 239.158 437.667C221.753 434.993 203.953 413.719 205.099 408.585C206.245 403.452 272.94 410.996 271.552 430.559Z" fill="url(#paint25_linear_862_20)"/>
<path style="mix-blend-mode:multiply" opacity="0.3" d="M270.4 426.906C273.04 438.375 266.742 479.857 255.936 494.007C262.552 478.7 255.053 454.157 244.862 445.085C237.136 438.152 218.196 430.28 209.438 426.966C205.943 416.64 204.108 409.205 205.103 408.612C213.411 403.265 267.196 413.269 270.4 426.906Z" fill="url(#paint26_linear_862_20)"/>
<path d="M232.984 450.782C229.703 451.058 233.248 459.472 233.936 459.853C234.623 460.233 235.67 457.047 235.423 454.638C235.177 452.229 234.14 450.679 232.984 450.782Z" fill="white"/>
<path d="M335.041 344.375C345.166 387.327 330.872 414.682 290.652 433.263C251.272 451.466 206.881 420.653 195.648 364.9C188.491 329.311 184.339 296.673 192.605 271.174C197.183 256.316 207.027 243.629 220.293 235.487C231.572 228.253 244.635 230.013 257.788 237.144C292.057 255.719 327.219 311.286 335.041 344.375Z" fill="url(#paint27_linear_862_20)"/>
<path style="mix-blend-mode:multiply" opacity="0.3" d="M279.006 281.462C289.352 297.114 298.842 313.315 307.434 329.992C318.929 353.955 316.413 383.736 316.413 383.736L336.559 351.697C335.029 339.898 331.284 328.495 325.52 318.085C316.4 302.722 311.572 296.008 311.572 296.008L279.006 281.462Z" fill="url(#paint28_linear_862_20)"/>
<path d="M196.251 372.123C196.251 372.123 191.244 338.396 219.382 324.918C253.078 308.68 293.663 335.092 303.769 361.289C313.875 387.486 317.458 414.828 286.103 431.048C286.103 431.048 225.722 458.248 196.251 372.123Z" fill="url(#paint29_linear_862_20)"/>
<path d="M198.295 375.552C198.295 375.552 193.288 341.825 221.427 328.347C255.123 312.109 295.707 338.521 305.813 364.718C315.919 390.915 319.502 418.258 288.151 434.504C288.151 434.504 227.854 461.717 198.295 375.552Z" fill="url(#paint30_radial_862_20)"/>
<path d="M310.124 306.277C309.072 306.551 307.972 306.594 306.902 306.403C305.831 306.211 304.815 305.79 303.924 305.168C292.368 299.17 271.971 275.615 264.774 260.518C262.019 254.672 261.253 250.196 263.781 248.27C267.897 245.358 284.328 256.131 299.016 275.316C307.442 286.49 316.382 303.296 310.124 306.277Z" fill="url(#paint31_linear_862_20)"/>
<path d="M303.924 305.168C292.368 299.17 271.971 275.615 264.774 260.518C271.941 264.112 282.716 273.254 292.695 286.304C297.196 292.11 300.967 298.445 303.924 305.168V305.168Z" fill="#6340A2"/>
<path style="mix-blend-mode:multiply" opacity="0.5" d="M257.298 236.977C257.298 236.977 223.409 272.235 206.854 277.995C190.662 283.643 192.03 271.673 192.115 271.007C196.697 256.159 206.528 243.478 219.777 235.324C231.095 228.166 244.118 229.85 257.298 236.977Z" fill="url(#paint32_linear_862_20)"/>
<path style="mix-blend-mode:screen" opacity="0.72" d="M200.59 371.133C208.721 377.186 219.556 359.277 240.38 352.077C261.203 344.876 276.831 350.254 281.149 344.671C285.467 339.088 253.446 318.197 222.561 331.54C197.896 342.18 197.92 369.082 200.59 371.133Z" fill="url(#paint33_linear_862_20)"/>
<path style="mix-blend-mode:screen" opacity="0.72" d="M257.849 433.852C266.513 436.402 275.803 435.812 284.076 432.186C298.019 426.107 299.398 417.291 299.398 417.291C293.504 418 287.927 420.347 283.304 424.066C275.957 429.739 267.108 433.142 257.849 433.852V433.852Z" fill="url(#paint34_linear_862_20)"/>
<path d="M242.368 273.71C240 274.93 246.958 300.185 249.278 300.034C251.598 299.883 251.771 293.598 249.996 285.175C248.221 276.752 244.639 272.56 242.368 273.71Z" fill="white"/>
<path d="M430.872 322.259C437.374 337.956 423.816 351.429 417.006 351.967C411.086 352.446 390.687 348.942 362.524 335.001C358.38 332.939 354.043 330.69 349.554 328.166C314.536 308.487 262.004 262.291 275.217 254.886C312.973 233.323 424.327 306.46 430.872 322.259Z" fill="url(#paint35_linear_862_20)"/>
<path d="M403.329 350.115C403.329 350.115 393.955 338.465 400.756 326.04C407.557 313.614 428.673 318.882 428.673 318.882C430.164 320.643 431.279 322.689 431.95 324.896C432.622 327.102 432.835 329.423 432.577 331.715C432.318 334.007 431.595 336.223 430.449 338.227C429.304 340.231 427.761 341.981 425.915 343.369C412.33 355.132 403.329 350.115 403.329 350.115Z" fill="url(#paint36_linear_862_20)"/>
<path style="mix-blend-mode:multiply" opacity="0.3" d="M430.872 322.259C437.374 337.956 423.816 351.429 417.006 351.967C411.086 352.446 390.687 348.942 362.523 335.001C365.064 336.066 383.498 343.501 390.001 338.114C396.954 332.302 394.285 301.795 346.873 272.551C300.706 244.115 276.4 254.099 274.922 254.743C312.973 233.323 424.327 306.46 430.872 322.259Z" fill="url(#paint37_linear_862_20)"/>
<path d="M407.582 330.232C412.026 323.895 425.046 320.927 432.101 322.961C439.157 324.996 463.415 338.034 479.991 367.038C479.991 367.038 480.868 385.588 469.107 391.158C460.145 395.303 440.178 374.972 425.241 361.078C410.304 347.184 400.203 340.737 407.582 330.232Z" fill="url(#paint38_linear_862_20)"/>
<path d="M471.194 390.744C471.194 390.744 432.38 337.064 404.795 345.964C404.795 345.964 411.571 354.3 431.641 369.963C451.711 385.626 465.371 393.547 471.194 390.744Z" fill="url(#paint39_linear_862_20)"/>
<path style="mix-blend-mode:multiply" opacity="0.5" d="M446.458 364.071C446.458 364.071 448.745 375.542 446.707 379.865C445.563 382.388 443.541 384.411 441.016 385.557L431.46 352.88C436.907 355.973 441.945 359.732 446.458 364.071Z" fill="url(#paint40_linear_862_20)"/>
<path d="M431.461 352.88C431.461 352.88 415.963 342.829 405.128 347.544C405.128 347.544 405.163 361.821 434.821 387.222C434.821 387.222 444.175 388.456 444.428 377.534C441.309 368.738 436.942 360.436 431.461 352.88V352.88Z" fill="url(#paint41_linear_862_20)"/>
<path d="M422.522 352.886C425.122 350.215 432.935 365.758 431.285 366.864C429.634 367.969 420.336 355.083 422.522 352.886Z" fill="white"/>
<path d="M319.847 295.944C317.296 303.042 329.636 306.086 332.373 304.617C335.111 303.149 321.509 291.137 319.847 295.944Z" fill="white"/>
<path d="M335.176 306.648C334.217 307.643 339.523 311.017 340.749 311.529C343.113 312.513 347.539 312.408 347.621 311.552C347.703 310.696 336.172 305.537 335.176 306.648Z" fill="white"/>
<path d="M137.632 322.624C138.517 324.415 150.459 316.558 149.631 311.004C148.803 305.45 136.386 320.101 137.632 322.624Z" fill="white"/>
<path d="M396.964 461.986C395.062 464.601 390.747 465.232 385.059 464.423C377.314 462.977 369.768 460.625 362.576 457.414V457.414C339.229 447.713 312.883 431.144 310.693 425.425C303.157 405.621 319.721 376.082 330.893 360.976C335.245 355.088 338.774 351.399 339.73 351.41C342.904 351.15 406.786 448.509 396.964 461.986Z" fill="url(#paint42_linear_862_20)"/>
<path style="mix-blend-mode:multiply" opacity="0.3" d="M396.964 461.987C395.062 464.601 390.747 465.233 385.059 464.423L362.576 457.414C364.652 457.955 388.479 463.308 375.782 432.3C362.45 399.869 330.363 363.645 330.363 363.645L330.713 360.869C335.064 354.981 338.593 351.292 339.549 351.303C342.905 351.151 406.786 448.509 396.964 461.987Z" fill="url(#paint43_linear_862_20)"/>
<path d="M325.915 415.905C321.429 419.747 335.479 428.232 336.9 428.088C338.322 427.943 336.424 422.178 333.534 418.911C330.946 416.003 327.497 414.538 325.915 415.905Z" fill="white"/>
<path d="M338.859 428.919C338.3 430.205 342.669 432.83 343.068 431.569C343.131 430.873 342.996 430.174 342.68 429.551C342.364 428.928 341.88 428.406 341.282 428.044C340.837 427.923 340.365 427.942 339.931 428.098C339.497 428.255 339.123 428.542 338.859 428.919V428.919Z" fill="white"/>
<path d="M77.9572 358.552C78.4667 360.729 92.9242 351.032 92.5067 348.405C92.0891 345.778 77.1232 354.849 77.9572 358.552Z" fill="white"/>
<path d="M51.4558 390.732C52.3165 394.207 53.8647 397.476 56.0093 400.346C56.0093 400.346 64.4977 404.192 79.1632 401.29C93.8287 398.387 121.978 377.944 125.753 374.433C129.529 370.922 130.405 361.859 130.405 361.859L51.4558 390.732Z" fill="url(#paint44_linear_862_20)"/>
<path d="M126.703 346.288C118.73 344.481 100.061 351.693 88.919 357.898C77.7767 364.104 60.5717 380.523 51.4558 390.732C51.4558 390.732 52.9338 398.658 68.722 398.189C84.5102 397.72 123.301 373.408 129.099 364.787C134.897 356.167 126.703 346.288 126.703 346.288Z" fill="url(#paint45_linear_862_20)"/>
<path d="M75.0873 367.932C75.0873 367.932 100.791 360.228 112.595 348.068C112.791 347.928 89.9365 350.582 75.0873 367.932Z" fill="url(#paint46_linear_862_20)"/>
<path d="M108.812 349.132C99.9115 356.072 89.6397 361.052 78.6733 363.743C78.6733 363.743 62.2251 366.576 61.0175 364.809C59.81 363.042 58.1002 355.887 62.0626 353.38C66.025 350.873 94.0434 343.155 108.812 349.132Z" fill="url(#paint47_linear_862_20)"/>
<path d="M77.6653 367.005C92.1727 366.252 106.693 368.186 120.492 372.712L122.771 370.935C122.771 370.935 105.636 362.586 77.6653 367.005Z" fill="url(#paint48_linear_862_20)"/>
<path d="M80.6075 390.314C85.6183 386.348 91.5668 383.734 97.8806 382.726C97.8806 382.726 86.3238 390.44 80.6075 390.314Z" fill="white"/>
<defs>
<linearGradient id="paint0_linear_862_20" x1="150.942" y1="125.673" x2="153.176" y2="56.8168" gradientUnits="userSpaceOnUse">
<stop stop-color="#45FFCD"/>
<stop offset="1" stop-color="#22E0FF"/>
</linearGradient>
<linearGradient id="paint1_linear_862_20" x1="171.272" y1="97.3257" x2="173.179" y2="38.5398" gradientUnits="userSpaceOnUse">
<stop stop-color="#B9ACF4"/>
<stop offset="1" stop-color="#E1D1F5"/>
</linearGradient>
<linearGradient id="paint2_linear_862_20" x1="225.15" y1="255.293" x2="260.081" y2="34.9571" gradientUnits="userSpaceOnUse">
<stop stop-color="#CBC1F7"/>
<stop offset="1" stop-color="#E8DCF7"/>
</linearGradient>
<linearGradient id="paint3_linear_862_20" x1="158.671" y1="225.662" x2="340.549" y2="231.688" gradientUnits="userSpaceOnUse">
<stop stop-color="#8879EA"/>
<stop offset="1" stop-color="#9E8CEF"/>
</linearGradient>
<linearGradient id="paint4_linear_862_20" x1="237.203" y1="250.765" x2="241.889" y2="106.338" gradientUnits="userSpaceOnUse">
<stop stop-color="#9D68C2"/>
<stop offset="1" stop-color="#CCEDFF"/>
</linearGradient>
<linearGradient id="paint5_linear_862_20" x1="248.981" y1="248.055" x2="250.344" y2="206.054" gradientUnits="userSpaceOnUse">
<stop stop-color="#8DA4E5"/>
<stop offset="1" stop-color="#755CBB"/>
</linearGradient>
<linearGradient id="paint6_linear_862_20" x1="249.841" y1="234.101" x2="250.51" y2="206.514" gradientUnits="userSpaceOnUse">
<stop stop-color="#5E36CC"/>
<stop offset="1" stop-color="#6C4A96"/>
</linearGradient>
<linearGradient id="paint7_linear_862_20" x1="205.149" y1="207.088" x2="210.582" y2="39.6188" gradientUnits="userSpaceOnUse">
<stop stop-color="#0665BD"/>
<stop offset="1" stop-color="#1A1F77"/>
</linearGradient>
<linearGradient id="paint8_linear_862_20" x1="8434.58" y1="2620.6" x2="7658.9" y2="-2105.1" gradientUnits="userSpaceOnUse">
<stop stop-color="#B9ACF4"/>
<stop offset="1" stop-color="#E1D1F5"/>
</linearGradient>
<linearGradient id="paint9_linear_862_20" x1="336.883" y1="127.534" x2="319.298" y2="20.3964" gradientUnits="userSpaceOnUse">
<stop stop-color="#BE9DEA"/>
<stop offset="1" stop-color="#9E8CEF"/>
</linearGradient>
<linearGradient id="paint10_linear_862_20" x1="9663.61" y1="2118.23" x2="8980.7" y2="-2042.28" gradientUnits="userSpaceOnUse">
<stop stop-color="#45FFCD"/>
<stop offset="1" stop-color="#22E0FF"/>
</linearGradient>
<linearGradient id="paint11_linear_862_20" x1="927.539" y1="7193.21" x2="1108.23" y2="6016.74" gradientUnits="userSpaceOnUse">
<stop stop-color="#BE9DEA"/>
<stop offset="1" stop-color="#9E8CEF"/>
</linearGradient>
<linearGradient id="paint12_linear_862_20" x1="100.789" y1="236.64" x2="104.384" y2="208.574" gradientUnits="userSpaceOnUse">
<stop stop-color="#DD1A8F"/>
<stop offset="1" stop-color="#FE117E"/>
</linearGradient>
<linearGradient id="paint13_linear_862_20" x1="102.695" y1="223.86" x2="101.3" y2="210.969" gradientUnits="userSpaceOnUse">
<stop stop-color="#D93DE3"/>
<stop offset="1" stop-color="#FF6DBA"/>
</linearGradient>
<linearGradient id="paint14_linear_862_20" x1="4082.26" y1="654.415" x2="4071.52" y2="586.839" gradientUnits="userSpaceOnUse">
<stop stop-color="#45FFCD"/>
<stop offset="1" stop-color="#22E0FF"/>
</linearGradient>
<linearGradient id="paint15_linear_862_20" x1="1763.17" y1="975.051" x2="1754.23" y2="918.842" gradientUnits="userSpaceOnUse">
<stop stop-color="#45FFCD"/>
<stop offset="1" stop-color="#22E0FF"/>
</linearGradient>
<linearGradient id="paint16_linear_862_20" x1="140.946" y1="74.6202" x2="285.109" y2="79.3971" gradientUnits="userSpaceOnUse">
<stop/>
<stop offset="1" stop-color="#6A9BFF"/>
</linearGradient>
<linearGradient id="paint17_linear_862_20" x1="5024.15" y1="1915.88" x2="9144.32" y2="1260.95" gradientUnits="userSpaceOnUse">
<stop/>
<stop offset="1" stop-color="#6A9BFF"/>
</linearGradient>
<linearGradient id="paint18_linear_862_20" x1="2256.95" y1="7872.88" x2="1995.24" y2="6226.51" gradientUnits="userSpaceOnUse">
<stop/>
<stop offset="1" stop-color="#6A9BFF"/>
</linearGradient>
<linearGradient id="paint19_linear_862_20" x1="342.84" y1="125.767" x2="337.805" y2="95.0918" gradientUnits="userSpaceOnUse">
<stop stop-color="#D4E2FF"/>
<stop offset="1"/>
</linearGradient>
<linearGradient id="paint20_linear_862_20" x1="303.764" y1="47.5865" x2="363.981" y2="37.7014" gradientUnits="userSpaceOnUse">
<stop/>
<stop offset="1" stop-color="#D4E2FF"/>
</linearGradient>
<linearGradient id="paint21_linear_862_20" x1="161.425" y1="375.428" x2="157.543" y2="257.044" gradientUnits="userSpaceOnUse">
<stop stop-color="#CBC1F7"/>
<stop offset="1" stop-color="#D4BEF1"/>
</linearGradient>
<linearGradient id="paint22_linear_862_20" x1="1414.09" y1="4188.84" x2="1293.23" y2="3805.03" gradientUnits="userSpaceOnUse">
<stop stop-color="#BE9DEA"/>
<stop offset="1" stop-color="#9E8CEF"/>
</linearGradient>
<linearGradient id="paint23_linear_862_20" x1="6557.57" y1="12505.7" x2="5875.26" y2="8213.29" gradientUnits="userSpaceOnUse">
<stop stop-color="#9D68C2"/>
<stop offset="1" stop-color="#CCEDFF"/>
</linearGradient>
<linearGradient id="paint24_linear_862_20" x1="8457.47" y1="10514.6" x2="8057.03" y2="7085.71" gradientUnits="userSpaceOnUse">
<stop stop-color="#CBC1F7"/>
<stop offset="1" stop-color="#E8DCF7"/>
</linearGradient>
<linearGradient id="paint25_linear_862_20" x1="5522.66" y1="2607.11" x2="6799.47" y2="2199.43" gradientUnits="userSpaceOnUse">
<stop stop-color="#8879EA"/>
<stop offset="1" stop-color="#9E8CEF"/>
</linearGradient>
<linearGradient id="paint26_linear_862_20" x1="8506.68" y1="9921.98" x2="7488.67" y2="6727.55" gradientUnits="userSpaceOnUse">
<stop stop-color="#9D68C2"/>
<stop offset="1" stop-color="#CCEDFF"/>
</linearGradient>
<linearGradient id="paint27_linear_862_20" x1="19698.3" y1="5913.62" x2="15450.6" y2="-9954.79" gradientUnits="userSpaceOnUse">
<stop stop-color="#CBC1F7"/>
<stop offset="1" stop-color="#E8DCF7"/>
</linearGradient>
<linearGradient id="paint28_linear_862_20" x1="8028.92" y1="2790.82" x2="6166.87" y2="-1098.58" gradientUnits="userSpaceOnUse">
<stop stop-color="#9D68C2"/>
<stop offset="1" stop-color="#CCEDFF"/>
</linearGradient>
<linearGradient id="paint29_linear_862_20" x1="10687.3" y1="614.609" x2="14502.5" y2="-1216.7" gradientUnits="userSpaceOnUse">
<stop stop-color="#BE9DEA"/>
<stop offset="1" stop-color="#9E8CEF"/>
</linearGradient>
<radialGradient id="paint30_radial_862_20" cx="0" cy="0" r="1" gradientUnits="userSpaceOnUse" gradientTransform="translate(13573.8 1537.89) rotate(-25.5828) scale(3198.3 3433.4)">
<stop stop-color="#45FFCD"/>
<stop offset="1" stop-color="#22E0FF"/>
</radialGradient>
<linearGradient id="paint31_linear_862_20" x1="5300.56" y1="-1199.29" x2="5671.06" y2="-1377.13" gradientUnits="userSpaceOnUse">
<stop stop-color="#8879EA"/>
<stop offset="1" stop-color="#9E8CEF"/>
</linearGradient>
<linearGradient id="paint32_linear_862_20" x1="7336.67" y1="-3036.2" x2="7106.29" y2="-3517.41" gradientUnits="userSpaceOnUse">
<stop stop-color="#8DA4E5"/>
<stop offset="1" stop-color="#755CBB"/>
</linearGradient>
<linearGradient id="paint33_linear_862_20" x1="7318.1" y1="-1717.17" x2="9745.47" y2="-2882.32" gradientUnits="userSpaceOnUse">
<stop/>
<stop offset="1" stop-color="#D4E2FF"/>
</linearGradient>
<linearGradient id="paint34_linear_862_20" x1="4785.46" y1="-545.89" x2="4764.01" y2="-590.701" gradientUnits="userSpaceOnUse">
<stop stop-color="#D4E2FF"/>
<stop offset="1"/>
</linearGradient>
<linearGradient id="paint35_linear_862_20" x1="21930.4" y1="-19751.3" x2="17965.7" y2="-25676.7" gradientUnits="userSpaceOnUse">
<stop stop-color="#CBC1F7"/>
<stop offset="1" stop-color="#E8DCF7"/>
</linearGradient>
<linearGradient id="paint36_linear_862_20" x1="5992.33" y1="-4491.82" x2="5760.66" y2="-4771.31" gradientUnits="userSpaceOnUse">
<stop stop-color="#BE9DEA"/>
<stop offset="1" stop-color="#9E8CEF"/>
</linearGradient>
<linearGradient id="paint37_linear_862_20" x1="22224.3" y1="-19790.9" x2="17455.4" y2="-25544.4" gradientUnits="userSpaceOnUse">
<stop stop-color="#9D68C2"/>
<stop offset="1" stop-color="#CCEDFF"/>
</linearGradient>
<linearGradient id="paint38_linear_862_20" x1="2201.1" y1="1340.71" x2="230.048" y2="-111.886" gradientUnits="userSpaceOnUse">
<stop stop-color="#CBC1F7"/>
<stop offset="1" stop-color="#E8DCF7"/>
</linearGradient>
<linearGradient id="paint39_linear_862_20" x1="1531.17" y1="1465.54" x2="371.823" y2="340.118" gradientUnits="userSpaceOnUse">
<stop stop-color="#BE9DEA"/>
<stop offset="1" stop-color="#9E8CEF"/>
</linearGradient>
<linearGradient id="paint40_linear_862_20" x1="768.737" y1="1143.21" x2="493.997" y2="876.511" gradientUnits="userSpaceOnUse">
<stop stop-color="#8DA4E5"/>
<stop offset="1" stop-color="#755CBB"/>
</linearGradient>
<linearGradient id="paint41_linear_862_20" x1="924.112" y1="1141.03" x2="220.74" y2="652.246" gradientUnits="userSpaceOnUse">
<stop stop-color="#CBC1F7"/>
<stop offset="1" stop-color="#E8DCF7"/>
</linearGradient>
<linearGradient id="paint42_linear_862_20" x1="14826.6" y1="2359.18" x2="13142.1" y2="-2902.44" gradientUnits="userSpaceOnUse">
<stop stop-color="#CBC1F7"/>
<stop offset="1" stop-color="#E8DCF7"/>
</linearGradient>
<linearGradient id="paint43_linear_862_20" x1="11464.6" y1="4350.41" x2="8821.88" y2="-586.773" gradientUnits="userSpaceOnUse">
<stop stop-color="#9D68C2"/>
<stop offset="1" stop-color="#CCEDFF"/>
</linearGradient>
<linearGradient id="paint44_linear_862_20" x1="2292.73" y1="3979.75" x2="2053.32" y2="3456.2" gradientUnits="userSpaceOnUse">
<stop stop-color="#BE9DEA"/>
<stop offset="1" stop-color="#9E8CEF"/>
</linearGradient>
<linearGradient id="paint45_linear_862_20" x1="92.0228" y1="397.314" x2="90.3696" y2="347.109" gradientUnits="userSpaceOnUse">
<stop stop-color="#E8DCF7"/>
<stop offset="1" stop-color="#CBC1F7"/>
</linearGradient>
<linearGradient id="paint46_linear_862_20" x1="1071.1" y1="1790.86" x2="1039.29" y2="1717.07" gradientUnits="userSpaceOnUse">
<stop stop-color="#BE9DEA"/>
<stop offset="1" stop-color="#9E8CEF"/>
</linearGradient>
<linearGradient id="paint47_linear_862_20" x1="1007.31" y1="1944.66" x2="995.457" y2="1846.5" gradientUnits="userSpaceOnUse">
<stop stop-color="#CBC1F7"/>
<stop offset="1" stop-color="#E8DCF7"/>
</linearGradient>
<linearGradient id="paint48_linear_862_20" x1="853.798" y1="1648.23" x2="1005.31" y2="1910.97" gradientUnits="userSpaceOnUse">
<stop stop-color="#BE9DEA"/>
<stop offset="1" stop-color="#9E8CEF"/>
</linearGradient>
</defs>
</svg>
