<svg width="39" height="45" viewBox="0 0 39 45" fill="none" xmlns="http://www.w3.org/2000/svg">
<path fill-rule="evenodd" clip-rule="evenodd" d="M6.10471 14.7309L17.38 0.632324L1.12036 10.9927L6.10471 14.7309ZM19.4999 0.638147L31.0269 15.0469H7.97294L19.4999 0.638147ZM31.268 16.7031L19.5 35.8261L7.73193 16.7031H31.268ZM21.6199 0.6375L37.8795 10.9927L32.8951 14.7309L21.6199 0.6375ZM38.5633 29.4485V12.5459L33.738 16.1691L38.5633 29.4485ZM20.3279 44.2457V38.1078L38.2486 35.1206L20.3279 44.2457ZM18.6718 38.1078L0.751209 35.1206L18.6718 44.2457V38.1078ZM0.440146 12.5496L5.40394 16.2756L0.436523 29.4563L0.440146 12.5496ZM21.1591 36.2901L38.2563 33.4405L32.5572 17.7682L21.1591 36.2901ZM6.44261 17.7683L17.8407 36.2902L0.743561 33.4406L6.44261 17.7683Z" fill="white"/>
</svg>
