<svg width="115" height="32" viewBox="0 0 115 32" fill="none" xmlns="http://www.w3.org/2000/svg">
<path d="M23.397 -8.13333e-07L14.421 13.464L14.421 23.364L8.778 23.364L8.778 13.464L0 0L6.831 -2.37461e-07L11.814 8.646L16.797 -5.83902e-07L23.397 -8.13333e-07Z" fill="white"/>
<path d="M38.0493 23.364L32.8353 23.364L32.8353 21.087L32.7693 21.087C32.3733 21.857 31.7243 22.506 30.8223 23.034C29.9203 23.562 28.9193 23.826 27.8193 23.826C25.7733 23.826 24.2663 23.177 23.2983 21.879C22.3303 20.559 21.8463 18.964 21.8463 17.094L21.8463 6.93L27.2913 6.93L27.2913 15.84C27.2913 18.172 28.1053 19.338 29.7333 19.338C30.6353 19.338 31.3393 18.997 31.8453 18.315C32.3733 17.633 32.6373 16.797 32.6373 15.807L32.6373 6.93L38.0493 6.93L38.0493 23.364Z" fill="white"/>
<path d="M55.9438 23.364L41.2918 23.364L41.2918 19.14L49.0138 11.088L41.5888 11.088L41.5888 6.93L55.6138 6.93L55.6138 10.989L47.6608 19.173L55.9438 19.173L55.9438 23.364Z" fill="white"/>
<path d="M77.1865 7.194C77.1865 8.91 76.7355 10.34 75.8335 11.484C74.9535 12.628 73.8425 13.431 72.5005 13.893C71.1805 14.333 69.6515 14.553 67.9135 14.553L65.1085 14.553L65.1085 23.364L59.4655 23.364L59.4655 -2.06716e-06L68.0455 -2.36542e-06C70.8175 -2.46178e-06 73.0285 0.571997 74.6785 1.716C76.3505 2.838 77.1865 4.664 77.1865 7.194ZM71.5435 7.227C71.5435 5.445 70.2235 4.554 67.5835 4.554L65.1085 4.554L65.1085 10.065L67.4845 10.065C70.1905 10.065 71.5435 9.119 71.5435 7.227Z" fill="white"/>
<path d="M88.432 16.764L88.432 16.203L87.739 16.203C84.373 16.203 82.69 16.951 82.69 18.447C82.69 19.019 82.921 19.448 83.383 19.734C83.845 19.998 84.395 20.13 85.033 20.13C86.111 20.13 86.947 19.833 87.541 19.239C88.135 18.623 88.432 17.798 88.432 16.764ZM81.238 12.111L78.499 9.174C80.457 7.326 82.899 6.402 85.825 6.402C88.531 6.402 90.467 7.095 91.633 8.481C92.799 9.845 93.382 12.045 93.382 15.081L93.382 23.364L88.432 23.364L88.432 21.615L88.333 21.615C87.937 22.275 87.31 22.803 86.452 23.199C85.594 23.573 84.67 23.76 83.68 23.76C82.712 23.76 81.799 23.617 80.941 23.331C80.105 23.023 79.357 22.462 78.697 21.648C78.037 20.834 77.707 19.822 77.707 18.612C77.707 14.916 81.227 13.068 88.267 13.068L88.267 12.804C88.267 12.034 87.992 11.451 87.442 11.055C86.892 10.637 86.177 10.428 85.297 10.428C83.801 10.428 82.448 10.989 81.238 12.111Z" fill="white"/>
<path d="M114.053 6.93L106.694 25.839C105.99 27.687 105.099 29.051 104.021 29.931C102.943 30.833 101.425 31.284 99.4674 31.284C98.4554 31.284 97.4654 31.163 96.4974 30.921L97.0914 26.367C97.7294 26.565 98.3124 26.664 98.8404 26.664C99.6324 26.664 100.215 26.488 100.589 26.136C100.985 25.806 101.326 25.245 101.612 24.453L102.14 23.1L95.2764 6.93L101.282 6.93L104.945 17.49L105.044 17.49L108.311 6.93L114.053 6.93Z" fill="white"/>
</svg>
